<?xml version="1.0" standalone="no"?>
<!DOCTYPE svg PUBLIC "-//W3C//DTD SVG 20010904//EN"
 "http://www.w3.org/TR/2001/REC-SVG-20010904/DTD/svg10.dtd">
<svg version="1.0" xmlns="http://www.w3.org/2000/svg"
 width="832.000000pt" height="1248.000000pt" viewBox="0 0 832.000000 1248.000000"
 preserveAspectRatio="xMidYMid meet">

<g transform="translate(0.000000,1248.000000) scale(0.100000,-0.100000)"
fill="#000000" stroke="none">
<path d="M3865 9208 c-1251 -110 -2325 -1024 -2630 -2238 -120 -481 -125 -934
-13 -1430 167 -743 626 -1402 1273 -1825 397 -260 817 -413 1296 -471 181 -23
539 -22 714 0 602 76 1133 306 1585 684 115 96 330 316 423 432 460 572 695
1343 637 2086 -32 417 -131 772 -318 1137 -145 285 -325 533 -551 757 -512
510 -1150 806 -1871 870 -134 12 -402 11 -545 -2z m-1785 -2403 c0 -3 -25 -56
-56 -117 l-56 -112 -35 42 c-19 23 -55 54 -79 68 -36 21 -42 29 -33 40 16 20
76 55 118 70 35 13 141 19 141 9z m1612 0 c9 -10 -13 -107 -35 -154 -12 -25
-38 -62 -59 -82 -68 -66 -88 -69 -481 -69 l-349 0 6 25 c38 153 127 250 249
275 46 9 660 13 669 5z m-1431 -102 c14 -15 33 -41 42 -58 32 -59 467 -944
467 -949 0 -11 -114 -46 -154 -46 -60 0 -127 25 -175 67 -36 30 -68 88 -221
393 -126 252 -176 361 -169 371 8 13 60 129 108 242 l21 48 27 -19 c16 -11 40
-33 54 -49z m819 -321 c0 -10 -191 -483 -215 -533 l-17 -36 -94 185 c-64 127
-92 192 -88 206 13 46 57 162 67 174 11 14 347 18 347 4z m2128 -94 c21 -21
14 -57 -14 -70 -31 -14 -57 -1 -62 31 -7 42 46 69 76 39z m-1783 -153 c23 -71
45 -123 48 -115 3 8 23 68 43 133 l38 117 49 0 c35 0 48 -4 45 -12 -3 -7 -33
-93 -68 -190 l-63 -178 -52 0 -52 0 -16 48 c-8 26 -38 111 -66 190 l-51 143
51 -3 51 -3 43 -130z m1643 126 c7 -1 12 -15 12 -36 l0 -35 -55 0 -55 0 0
-145 0 -145 -45 0 c-25 0 -44 3 -44 8 1 4 1 69 0 145 l-1 137 -55 0 -55 0 0
33 c0 19 2 36 4 38 4 3 242 3 294 0z m592 -91 c0 -55 3 -100 8 -100 4 1 25 23
47 50 37 45 44 50 83 50 23 0 42 -2 42 -5 0 -3 -21 -28 -46 -55 l-46 -49 51
-75 c67 -99 66 -105 -9 -90 -24 5 -39 18 -62 55 -16 27 -34 49 -39 49 -14 0
-29 -36 -29 -69 0 -29 -2 -31 -40 -31 l-40 0 0 185 0 185 40 0 40 0 0 -100z
m628 38 c3 -33 7 -38 28 -38 20 0 24 -5 24 -30 0 -25 -4 -30 -25 -30 -26 0
-26 -1 -23 -72 3 -68 5 -73 26 -76 19 -3 23 -9 20 -35 -3 -29 -7 -32 -39 -35
-24 -2 -43 4 -62 18 -26 20 -27 26 -27 111 0 82 -1 89 -20 89 -16 0 -20 7 -20
30 0 20 5 30 15 30 10 0 15 10 15 34 0 37 8 43 55 42 27 -1 30 -4 33 -38z
m-2417 -44 c33 -17 68 -82 69 -126 l0 -28 -100 0 c-105 0 -116 -6 -83 -42 19
-22 61 -23 87 -3 27 20 86 20 86 0 0 -25 -45 -63 -88 -75 -67 -17 -139 9 -172
63 -40 64 -17 171 44 208 38 23 116 25 157 3z m189 -6 l0 -22 16 22 c10 14 25
22 45 22 27 0 29 -2 29 -40 0 -37 -2 -40 -27 -40 -51 0 -63 -23 -63 -122 l0
-89 -42 3 -43 3 -3 129 c-1 72 0 136 2 143 3 8 22 13 46 13 35 0 40 -3 40 -22z
m339 -3 c10 -11 22 -30 26 -42 6 -21 3 -23 -33 -23 -24 0 -45 6 -52 16 -17 19
-75 15 -75 -6 0 -8 15 -18 35 -23 118 -30 153 -62 131 -119 -18 -47 -57 -68
-128 -68 -61 0 -67 2 -99 34 -19 19 -34 39 -34 45 0 18 88 14 98 -5 10 -18 73
-16 80 3 4 14 -22 27 -86 43 -56 14 -82 41 -82 84 0 26 8 41 32 61 29 25 38
27 100 23 51 -3 73 -9 87 -23z m307 -9 c22 -25 24 -36 24 -142 l0 -114 -40 0
c-29 0 -40 4 -40 15 0 19 -9 19 -34 0 -29 -22 -102 -19 -126 5 -44 44 -33 110
22 135 18 7 54 17 81 20 47 6 58 20 35 43 -16 16 -43 15 -58 -3 -7 -9 -29 -15
-51 -15 -31 0 -39 4 -39 18 0 19 33 55 60 65 8 4 44 5 79 4 55 -3 67 -7 87
-31z m759 20 c30 -13 65 -58 65 -86 0 -19 -66 -11 -85 10 -28 31 -71 26 -90
-10 -22 -42 -19 -77 10 -105 31 -32 50 -31 79 0 29 31 86 36 86 7 0 -47 -63
-92 -130 -92 -83 0 -140 57 -140 140 0 113 100 180 205 136z m612 -6 c42 -25
63 -58 66 -106 l2 -39 -97 -3 c-54 -1 -98 -6 -98 -10 0 -4 7 -18 16 -30 18
-26 75 -30 94 -7 8 9 22 12 43 8 41 -8 41 -7 25 -32 -33 -53 -140 -68 -199
-28 -47 32 -60 62 -56 127 4 66 27 103 77 124 48 21 89 19 127 -4z m-867 -125
l0 -135 -40 0 -40 0 0 135 0 135 40 0 40 0 0 -135z"/>
<path d="M3762 6104 c-35 -24 -26 -34 33 -34 30 0 55 4 55 9 0 12 -40 41 -55
41 -6 0 -21 -7 -33 -16z"/>
<path d="M4598 6013 c-32 -5 -52 -27 -44 -48 7 -18 57 -20 74 -3 13 13 17 59
5 57 -5 -1 -20 -4 -35 -6z"/>
<path d="M5970 6100 c-31 -31 -24 -40 34 -40 64 0 75 11 44 39 -28 26 -52 27
-78 1z"/>
</g>
</svg>
