<?xml version="1.0" standalone="no"?>
<!DOCTYPE svg PUBLIC "-//W3C//DTD SVG 20010904//EN"
 "http://www.w3.org/TR/2001/REC-SVG-20010904/DTD/svg10.dtd">
<svg version="1.0" xmlns="http://www.w3.org/2000/svg"
 width="418.000000pt" height="468.000000pt" viewBox="0 0 418.000000 468.000000"
 preserveAspectRatio="xMidYMid meet">

<g transform="translate(0.000000,468.000000) scale(0.100000,-0.100000)"
fill="#000000" stroke="none">
<path d="M1914 4053 c-15 -48 -26 -64 -48 -75 -32 -14 -73 10 -88 53 -9 27
-14 29 -59 29 -46 0 -49 -2 -63 -35 -8 -19 -26 -40 -40 -47 -36 -16 -73 3 -92
47 -12 30 -19 35 -48 35 -46 0 -66 -9 -66 -29 0 -59 -81 -84 -118 -36 -11 14
-26 25 -32 25 -29 0 -101 -67 -127 -118 -30 -61 -36 -113 -53 -492 -6 -129
-17 -377 -26 -550 -9 -173 -19 -385 -22 -470 l-7 -155 -64 -3 c-35 -2 -68 1
-73 6 -5 5 9 22 32 41 54 44 53 67 -13 166 -29 44 -120 181 -202 305 -81 124
-157 235 -168 248 -27 30 -56 28 -104 -7 -34 -24 -39 -33 -36 -58 7 -48 -30
-65 -98 -48 -22 6 -34 0 -68 -30 -23 -21 -41 -44 -41 -52 0 -14 21 -49 166
-271 l61 -93 -13 -40 c-29 -82 15 -170 138 -281 114 -102 152 -129 233 -171
61 -31 99 -45 205 -76 l25 -8 5 -319 5 -319 33 -65 c58 -114 121 -149 268
-150 l92 0 21 -97 c12 -54 27 -111 32 -128 9 -27 6 -33 -31 -67 -104 -96 13
-158 214 -114 114 26 115 28 132 186 8 74 18 148 22 164 l8 29 214 -2 c118 -1
219 -6 224 -11 17 -17 75 -253 69 -282 -8 -41 14 -84 50 -99 39 -17 129 -16
178 0 63 20 76 44 83 151 11 153 21 238 30 247 4 4 51 11 104 14 143 9 209 52
248 161 19 53 19 60 10 358 -7 237 -6 244 11 220 104 -144 136 -175 189 -186
26 -5 38 0 65 24 34 30 34 31 33 119 -2 171 -86 358 -221 490 l-73 72 0 77 c0
104 44 760 75 1112 14 155 25 308 25 339 0 100 -58 185 -155 229 -61 27 -201
56 -251 52 -32 -3 -38 -8 -48 -38 -22 -68 -108 -60 -123 11 -6 29 -7 30 -61
27 -52 -3 -56 -5 -64 -33 -15 -56 -68 -73 -105 -32 -12 12 -23 31 -25 42 -3
17 -12 20 -59 23 l-56 3 -11 -39 c-23 -75 -96 -76 -126 -1 -15 38 -17 39 -66
39 -39 0 -52 -4 -56 -17z m613 -40 c36 -75 121 -79 159 -8 21 39 30 41 78 21
49 -21 82 -71 125 -191 10 -26 10 -21 6 29 -6 62 -16 88 -48 124 l-20 22 20 0
c31 0 103 -28 146 -56 27 -18 47 -43 64 -81 25 -54 26 -62 20 -180 -4 -67 -11
-162 -17 -210 -14 -123 -68 -865 -76 -1058 l-7 -160 -31 -20 c-17 -11 -46 -45
-63 -75 -28 -46 -33 -64 -33 -117 0 -79 19 -125 74 -183 l43 -45 1 -130 c1
-71 4 -206 7 -300 7 -196 -1 -234 -62 -297 -38 -39 -74 -51 -187 -61 l-50 -5
41 34 c56 47 86 119 86 209 0 39 -1 270 -2 515 -2 578 9 847 64 1565 23 304
26 374 16 340 -9 -28 -39 -303 -61 -555 -50 -566 -67 -1288 -40 -1700 14 -226
10 -247 -68 -331 -74 -80 -97 -86 -392 -93 -246 -6 -1016 24 -1093 43 -62 15
-114 56 -144 114 l-28 52 1 475 c1 465 8 700 39 1285 8 160 22 417 29 572 16
312 18 322 86 388 38 37 40 38 59 21 32 -29 91 -32 124 -6 16 13 33 33 37 46
13 33 57 33 70 0 12 -33 48 -56 88 -56 44 0 68 14 87 50 12 23 22 30 45 30 17
0 30 -4 30 -9 0 -5 12 -23 26 -40 44 -53 123 -40 150 25 12 28 20 34 44 34 23
0 33 -6 40 -24 27 -71 108 -89 154 -35 14 17 26 37 26 45 0 9 11 14 33 14 27
0 36 -6 51 -34 37 -69 124 -73 157 -7 22 43 30 51 54 51 17 0 28 -10 42 -37z
m-1962 -1101 c27 -39 79 -117 115 -173 36 -56 85 -131 109 -167 25 -37 67
-100 94 -140 29 -45 47 -82 45 -95 -4 -26 -230 -185 -264 -186 -11 -1 -30 12
-42 29 -19 25 -21 38 -16 83 12 100 -50 187 -134 187 -30 0 -37 6 -75 68 -23
37 -72 112 -109 167 -38 55 -68 104 -68 110 0 6 13 23 28 38 25 24 33 26 75
21 41 -6 51 -4 72 16 14 13 25 34 25 47 0 32 44 75 73 71 14 -2 39 -28 72 -76z
m-20 -540 c20 -29 25 -49 25 -100 0 -63 11 -91 54 -139 11 -13 28 -23 39 -23
10 0 54 24 96 54 l77 54 53 -14 c31 -8 71 -11 92 -8 l39 6 -7 -148 c-3 -82 -6
-150 -7 -151 -4 -6 -207 68 -241 88 -66 38 -136 92 -217 168 -61 57 -81 84
-97 127 -25 65 -26 92 -6 121 13 19 19 20 46 11 16 -5 41 -27 54 -46z m2474
-167 c41 -20 126 -119 166 -191 57 -101 95 -230 95 -318 0 -70 -2 -77 -25 -92
-49 -32 -96 4 -188 146 -30 47 -77 108 -105 137 -53 55 -72 98 -72 168 0 45
28 113 59 144 25 25 33 26 70 6z m-1300 -1221 l43 -6 -7 -41 c-4 -23 -12 -90
-19 -149 -6 -59 -17 -113 -22 -118 -6 -6 -47 -18 -90 -25 -191 -34 -250 -2
-136 75 l22 15 -30 119 c-17 66 -30 126 -30 133 0 12 21 13 113 8 61 -3 132
-8 156 -11z m888 -26 c-3 -18 -11 -95 -18 -171 l-12 -138 -31 -17 c-19 -9 -55
-16 -92 -16 -81 -1 -104 18 -104 84 0 26 -13 91 -30 146 -16 54 -30 107 -30
116 0 15 15 18 128 21 70 1 142 4 161 5 32 2 33 1 28 -30z"/>
<path d="M1432 2913 c-41 -20 -72 -58 -72 -90 0 -42 29 -40 70 6 51 55 92 57
150 4 39 -34 42 -35 58 -19 15 15 15 19 2 44 -38 66 -134 92 -208 55z"/>
<path d="M2217 2896 c-50 -18 -87 -53 -87 -83 0 -27 30 -32 51 -7 7 8 26 22
42 31 55 28 107 3 153 -73 16 -26 50 -6 46 27 -8 79 -121 136 -205 105z"/>
<path d="M1687 2633 c-14 -13 -6 -42 18 -72 37 -43 100 -64 177 -59 95 6 183
57 151 89 -9 9 -24 5 -64 -15 -88 -43 -195 -28 -240 35 -21 29 -30 34 -42 22z"/>
<path d="M1304 2261 c-23 -10 -45 -24 -49 -30 -4 -7 9 -29 28 -50 20 -22 41
-49 47 -61 9 -16 14 -19 25 -10 11 9 85 153 85 166 0 12 -101 1 -136 -15z"/>
<path d="M2295 2260 c-229 -5 -253 -11 -294 -68 -17 -24 -61 -123 -61 -137 0
-3 119 -5 264 -5 l264 0 44 33 c34 26 48 47 70 102 14 39 24 73 22 76 -4 7 -3
7 -309 -1z"/>
<path d="M1460 2138 c-28 -57 -50 -109 -50 -116 0 -7 59 -130 132 -273 122
-243 134 -262 173 -284 29 -17 57 -25 90 -25 48 0 125 18 125 29 0 12 -351
715 -371 742 -11 16 -27 29 -35 29 -9 0 -35 -40 -64 -102z"/>
<path d="M1880 1904 c-17 -36 -30 -73 -29 -82 0 -10 28 -73 63 -142 l63 -124
23 43 c21 43 160 360 160 367 0 2 -56 4 -125 4 l-126 0 -29 -66z"/>
<path d="M583 2663 c-8 -21 -28 -67 -44 -102 -17 -38 -27 -72 -23 -84 6 -18
12 -19 93 -12 47 4 87 8 89 10 1 1 -3 15 -10 30 -11 25 -16 27 -55 21 -24 -3
-43 -3 -43 -1 0 3 14 39 32 81 26 63 29 77 17 85 -26 16 -40 9 -56 -28z"/>
<path d="M690 2531 c0 -10 48 -71 65 -83 15 -11 33 11 28 35 -9 35 -34 57 -65
57 -15 0 -28 -4 -28 -9z"/>
</g>
</svg>
